<?xml version="1.0" encoding="UTF-8" standalone="no"?>
<!-- Created with Inkscape (http://www.inkscape.org/) -->

<svg
   width="1920"
   height="1080"
   viewBox="0 0 1920 1080"
   version="1.1"
   id="svg5"
   inkscape:version="1.1.2 (0a00cf5339, 2022-02-04, custom)"
   sodipodi:docname="desktop-wallpaper-manjaro-nord-1920x1080-V2.svg"
   inkscape:export-filename="/home/thinus/.obsidian/Resources/Pictures/desktop-wallpaper-manjaro-nord-1920x1080.png"
   inkscape:export-xdpi="96"
   inkscape:export-ydpi="96"
   xmlns:inkscape="http://www.inkscape.org/namespaces/inkscape"
   xmlns:sodipodi="http://sodipodi.sourceforge.net/DTD/sodipodi-0.dtd"
   xmlns="http://www.w3.org/2000/svg"
   xmlns:svg="http://www.w3.org/2000/svg">
  <sodipodi:namedview
     id="namedview7"
     pagecolor="#505050"
     bordercolor="#eeeeee"
     borderopacity="1"
     inkscape:pageshadow="0"
     inkscape:pageopacity="0"
     inkscape:pagecheckerboard="0"
     inkscape:document-units="px"
     showgrid="false"
     showborder="false"
     inkscape:zoom="0.46510417"
     inkscape:cx="417.11086"
     inkscape:cy="612.76596"
     inkscape:window-width="2560"
     inkscape:window-height="1410"
     inkscape:window-x="0"
     inkscape:window-y="0"
     inkscape:window-maximized="1"
     inkscape:current-layer="g9962" />
  <defs
     id="defs2" />
  <g
     inkscape:label="Layer 1"
     inkscape:groupmode="layer"
     id="layer1">
    <rect
       style="fill:#3b4252;fill-opacity:1;fill-rule:evenodd;stroke-width:5.29134"
       id="rect9986"
       width="1920"
       height="1080"
       x="0"
       y="0" />
    <g
       id="g9962"
       transform="matrix(0.44534336,0,0,0.44534336,-11.43008,338.54351)">
      <path
         id="path1220"
         style="fill:#2e3440;fill-opacity:1"
         d="m 1176.5077,575.41187 c -3.9946,-1.63495 -5.8622,-4.91351 -6.3077,-11.07328 -0.4109,-5.67991 -0.2781,-6.09559 2.9924,-9.36602 2.8381,-2.83818 4.4373,-3.54578 9.3688,-4.14562 8.593,-1.04519 16.6466,-3.75868 21.0065,-7.07766 5.1376,-3.91099 11.2168,-13.51971 11.8441,-18.72049 0.6234,-5.16813 1.5854,-72.22795 1.5914,-110.93626 v -28.76468 l 3.2843,-3.58385 c 5.7413,-6.26484 15.9097,-5.59876 20.4563,1.33998 1.637,2.4983 1.7592,7.55912 1.7567,72.72919 0,63.73119 -0.1614,70.62988 -1.7631,76.54405 -7.1032,26.22878 -30.0116,44.12039 -56.2342,43.91925 -3.3,-0.0253 -6.9,-0.41439 -8,-0.86461 z M 654.30633,515.78075 c -7.12507,-3.61941 -6.76728,-0.25792 -7.07846,-66.50355 -0.21776,-46.35706 0.004,-60.42881 1,-63.40449 1.77859,-5.31471 5.59377,-7.9001 11.65796,-7.9001 5.99284,0 9.61351,2.18901 11.88177,7.18357 0.92446,2.03558 1.76246,3.84433 1.86222,4.01945 0.0998,0.17512 2.13888,-1.17578 4.53137,-3.00201 8.20531,-6.26325 16.19086,-9.08914 27.17992,-9.6183 16.59358,-0.79904 27.80369,3.02101 38.06736,12.97215 l 5.90073,5.72105 5.59927,-4.99971 c 10.18425,-9.09374 23.22575,-13.89158 37.76015,-13.89158 20.67898,0 35.36937,8.014 43.67958,23.82836 6.38985,12.1599 6.62826,14.46851 6.64476,64.34491 l 0.0148,44.67328 -2.573,3.05784 c -5.84427,6.94551 -17.10807,5.70725 -21.76962,-2.3932 -0.8072,-1.40263 -1.30869,-15.47623 -1.6574,-46.51119 l -0.5,-44.5 -2.65101,-5 c -3.29615,-6.21675 -6.03843,-8.81156 -12.18651,-11.53115 -17.15827,-7.58992 -36.75774,1.54988 -41.84983,19.51577 -0.7214,2.54527 -1.3531,19.51454 -1.72536,46.3489 l -0.58729,42.33353 -3.20578,2.86287 c -6.15273,5.49459 -14.73873,4.47087 -19.72969,-2.3524 -1.99299,-2.72469 -2.08186,-4.35327 -2.56453,-47 -0.49212,-43.48115 -0.53631,-44.25634 -2.80361,-49.17752 -4.72103,-10.24699 -12.56704,-14.88078 -25.19639,-14.88078 -9.78839,0 -16.40926,2.81764 -22.47568,9.56495 -8.42143,9.36666 -8.52379,10.05206 -8.52806,57.10334 -0.004,39.044 -0.10596,41.38014 -1.94649,44.39867 -2.29937,3.77105 -4.43769,5.05452 -9.67453,5.80686 -2.56378,0.36833 -4.95866,0.006 -7.07665,-1.06952 z m 267.14936,-0.74229 c -11.04027,-3.66482 -17.34624,-7.56872 -25.44795,-15.75433 -12.30343,-12.43083 -17.8956,-24.144 -20.18647,-42.28189 -4.44854,-35.22129 14.80398,-66.44899 47.68647,-77.34775 7.10454,-2.35477 9.56705,-2.65407 22,-2.67397 12.72943,-0.0204 14.72604,0.22858 22,2.74309 22.69698,7.84605 40.49426,27.04833 46.00216,49.63362 1.8403,7.54614 3.2895,59.11509 2.0362,72.45448 -0.6712,7.14385 -1.0752,8.28229 -3.964,11.17113 -4.0109,4.01091 -8.945,5.08204 -13.89078,3.01553 -5.2746,-2.20385 -7.6753,-6.73145 -7.6798,-14.48381 v -6.34267 l -5.25,4.74539 c -7.0433,6.36626 -14.46435,11.02898 -22.55354,14.17053 -5.77839,2.24413 -8.5474,2.64805 -20.1965,2.94614 -12.03832,0.30804 -14.26355,0.092 -20.55205,-1.99549 z m 30.93911,-20.6569 c 7.57449,-1.24043 17.22332,-5.7741 22.57093,-10.60534 24.14289,-21.81164 19.09919,-65.9094 -9.10808,-79.63354 -28.47728,-13.85552 -60.45479,3.40472 -65.07833,35.1268 -3.80461,26.10338 11.29138,49.31606 35.49108,54.57364 7.7816,1.69061 8.86741,1.72687 16.1244,0.53844 z m 98.1129,21.57316 c -1.65,-0.72833 -3.9,-2.33269 -5,-3.56524 -1.9481,-2.18289 -2.0065,-3.83961 -2.2513,-63.88663 -0.1963,-48.16424 0.025,-62.18578 1.0146,-64.1156 1.8708,-3.65039 7.468,-7.03061 11.6346,-7.02628 6.7858,0.007 13.1021,6.24711 13.1021,12.94393 0,1.75408 0.9291,1.38923 7.25,-2.84702 11.477,-7.69182 19.1929,-10.28455 32.3533,-10.87148 13.5344,-0.60361 23.0808,1.24638 33.6077,6.51278 9.9055,4.95554 19.4178,14.56355 24.1415,24.38437 6.3499,13.20201 6.6162,15.67269 6.6327,61.52009 l 0.015,41.14641 -3.4786,3.05426 c -4.6339,4.06857 -9.338,4.89876 -14.2001,2.50605 -7.152,-3.51961 -7.123,-3.34915 -7.8064,-45.85313 -0.336,-20.9 -0.8512,-39.55015 -1.1448,-41.44477 -1.4017,-9.04556 -9.4915,-19.5733 -18.5569,-24.14955 -20.0919,-10.14233 -47.2264,-2.91182 -56.0134,14.92582 -2.2634,4.59459 -2.3077,5.34134 -2.7998,47.1685 -0.5618,47.75652 -0.3258,46.3127 -8.0797,49.41521 -4.7419,1.89735 -6.4665,1.92752 -10.4203,0.18228 z m 266.5716,-0.13253 c -22.6274,-6.31621 -40.9713,-25.96467 -46.6476,-49.96496 -2.2168,-9.37334 -2.1895,-26.80279 0.056,-36 6.1202,-25.06256 24.9475,-44.48852 49.6321,-51.21029 7.8963,-2.15021 27.8756,-2.38972 35.8875,-0.43022 18.3791,4.49506 36.0747,18.65921 45.125,36.11951 6.8155,13.14892 7.2671,16.40043 7.6606,55.15916 0.2337,23.01522 -0.015,36.00103 -0.7419,38.69971 -2.0077,7.4557 -11.0783,11.18839 -17.9664,7.39337 -4.7625,-2.62414 -7.0769,-7.39934 -7.0769,-14.60248 v -5.90244 l -4.9368,4.61781 c -6.7206,6.28634 -15.8606,12.04382 -23.3404,14.70262 -8.2268,2.92431 -29.3987,3.7218 -37.6512,1.41821 z m 28.9284,-21.525 c 9.1303,-1.46778 16.1158,-4.95497 22.9128,-11.43824 10.5974,-10.10817 15.7954,-23.85886 14.7433,-39.00172 -1.9303,-27.78341 -21.7302,-45.89308 -48.3657,-44.23685 -15.7699,0.9806 -29.7864,10.69398 -37.088,25.70187 -3.5095,7.21369 -3.6817,8.0607 -4.0391,19.86445 -0.3281,10.83553 -0.1024,13.07714 1.8623,18.5 6.7859,18.72979 21.8909,30.082 41.9744,31.54607 0.825,0.0601 4.425,-0.36087 8,-0.93558 z m 263.2155,21.09441 c -10.8753,-2.92847 -20.6501,-8.50775 -29.2231,-16.67998 -13.9139,-13.26338 -19.8935,-27.21594 -20.7231,-48.35439 -0.4102,-10.45249 -0.1436,-13.95172 1.6281,-21.36272 5.8853,-24.61925 24.098,-43.64639 48.1026,-50.25371 9.2601,-2.54886 31.038,-2.52466 40,0.0444 19.2403,5.5156 34.3809,17.94312 42.8579,35.17801 5.574,11.33279 6.5821,16.46191 6.5633,33.39397 -0.016,14.12014 -0.2556,16.21218 -2.6937,23.5 -7.069,21.13048 -21.6427,36.00494 -42.2371,43.10904 -7.0176,2.42075 -9.7557,2.7947 -22.4904,3.0716 -11.965,0.26016 -15.7735,-0.0276 -21.7845,-1.64627 z m 33.7845,-22.70376 c 18.5522,-5.03683 31,-23.36581 31,-45.64636 0,-28.20475 -18.4465,-47.75891 -44.9601,-47.6598 -8.1923,0.0306 -13.7955,1.3046 -20.7802,4.72466 -10.5507,5.16615 -20.3402,17.94504 -23.1744,30.25089 -1.4588,6.33394 -1.3105,20.56953 0.2761,26.5 6.8604,25.6444 31.1063,39.03402 57.6386,31.83061 z m -204.2342,20.75142 -3.2658,-2.91797 v -62.83203 c 0,-47.48299 0.2969,-63.34983 1.2154,-64.95168 1.5152,-2.6424 7.1314,-5.38035 11.0365,-5.38035 7.7241,0 12.2481,4.20757 12.2481,11.39132 0,4.82648 1.6181,5.36794 5.3364,1.78571 4.823,-4.64649 14.4041,-10.02963 21.93,-12.32134 5.6741,-1.72784 8.7411,-1.99734 19,-1.66955 10.9049,0.34844 12.7963,0.68339 17.414,3.08395 6.2911,3.27048 8.3196,5.95965 8.3196,11.02934 0,2.92681 -0.7035,4.55788 -2.9231,6.77749 -3.3384,3.33839 -4.7179,3.47298 -18.3853,1.79381 -22.0194,-2.7053 -41.0584,4.7412 -47.5766,18.60803 -1.9304,4.10671 -2.0862,6.85662 -2.7015,47.68962 -0.4333,28.75152 -1.0333,44.16297 -1.7832,45.80236 -1.5549,3.39889 -5.1769,4.99709 -11.3645,5.01452 -4.3819,0.0123 -5.7661,-0.46043 -8.5,-2.90323 z M 1222.5099,359.83929 c -4.6373,-2.50687 -6.2918,-4.36435 -8.0964,-9.08967 -3.0153,-7.89543 -0.2155,-15.87477 7.1724,-20.44072 2.8565,-1.76539 4.6038,-2.10131 9.0236,-1.73479 9.3304,0.77376 15.3982,7.19021 15.3982,16.28312 0,5.70904 -2.3572,10.22887 -7.2085,13.82234 -3.6575,2.70911 -12.2867,3.32347 -16.2893,1.15972 z" />
      <path
         id="path1194"
         style="fill:#698989;fill-opacity:1"
         d="M 225.00774,452.35285 V 281.34846 l 110.25,0.25439 110.25,0.25438 0.25934,49.75 0.25933,49.75 h -60.50933 -60.50934 v 121 121 h -50 -50 z m 121,60.51372 V 402.35723 h 50.00438 50.00439 l -0.25439,110.25 -0.25438,110.25 -49.75,0.25934 -49.75,0.25933 z m 121,-60.5 V 281.35723 h 50.00287 50.00286 l -0.25286,170.75 -0.25287,170.75 -49.75,0.25934 -49.75,0.25933 z" />
    </g>
    <rect
       style="fill:#4c566a;fill-opacity:1;fill-rule:evenodd;stroke-width:5.29134"
       id="rect9990"
       width="7.1645412"
       height="2.8949535"
       x="1661.9752"
       y="1350.958" />
    <path
       id="path974"
       style="fill:#d8dee9;stroke-width:3.02362;fill-opacity:1"
       d="M 1.165e-5,316.87722 V 299.21231 L 23.433076,288.24842 c 40.193165,-18.80563 94.272484,-31.73633 161.007874,-38.49797 100.01334,-10.1334 150.75312,-17.70965 201.07085,-30.02314 26.60787,-6.51134 57.90236,-13.54948 69.5433,-15.64035 24.36949,-4.37709 93.03585,-5.03303 143.62204,-1.37197 66.91182,4.84258 112.31298,-8.12761 226.31506,-64.65366 43.66175,-21.64891 79.97418,-39.361685 80.69427,-39.361685 2.75398,0 33.47474,-19.42513 40.11434,-25.3648 6.5962,-5.90087 9.96883,-6.1821 63.49609,-5.29451 119.1419,1.97563 118.7209,1.99147 136.0344,-5.11672 8.8047,-3.61483 19.8905,-9.44254 24.6353,-12.95048 7.9796,-5.89955 12.3362,-6.3627 58.0702,-6.17321 27.194,0.11278 59.2896,1.58652 71.3236,3.27522 24.4652,3.43316 55.5839,15.63122 80.4392,31.531 24.6758,15.78484 58.1316,33.303555 83.6335,43.793535 42.4078,17.44408 155.6086,55.07058 184.4409,61.3058 15.7985,3.41654 44.7968,10.84812 64.4406,16.51463 37.4603,10.80585 116.0258,27.26436 173.6696,36.38173 L 1920,241.98201 v 28.08075 c 0,27.69295 -0.1089,28.10785 -7.8331,30.04666 -11.5265,2.893 -27.3824,-2.83857 -81.2915,-29.38525 l -48.4502,-23.85846 -58.9607,-10.38315 c -127.5904,-22.46914 -131.6865,-22.61706 -210.1416,-7.5889 -18.293,3.50404 -46.8662,7.54219 -63.4961,8.97366 -42.9893,3.70046 -113.9306,3.52654 -124.2732,-0.3047 -4.8214,-1.78595 -12.8923,-8.91115 -17.9354,-15.83377 -13.8627,-19.02916 -20.9165,-21.4551 -36.2522,-12.46781 -15.1441,8.87509 -30.7569,9.37174 -86.8799,2.7639 -51.9698,-6.11885 -51.709,-6.23946 -96.9669,44.83605 -17.4103,19.6483 -21.8334,23.07453 -28.279,21.90571 -4.3205,-0.78345 -19.8739,-13.21988 -35.791,-28.61828 -15.4826,-14.97799 -31.73473,-28.13235 -36.11569,-29.23192 -12.56027,-3.1524 -30.41901,0.96798 -67.13426,15.48926 -47.89448,18.94278 -51.52345,18.56579 -76.89297,-7.98787 l -20.50574,-21.46282 -13.03803,2.05495 c -7.17095,1.1302 -29.29483,6.02629 -49.16421,10.88014 -19.86937,4.85388 -39.76417,8.82523 -44.21074,8.82523 -10.25694,0 -60.25443,12.53352 -92.74963,23.25077 -23.47398,7.74195 -26.1211,8.01266 -45.35433,4.63818 -11.23393,-1.97098 -33.35133,-8.45426 -49.14975,-14.40725 -15.79844,-5.953 -34.72951,-11.96793 -42.06906,-13.36647 -17.79881,-3.39154 -47.34308,1.02202 -78.87582,11.78308 -31.90354,10.88761 -48.46802,13.22771 -161.76377,22.85275 -64.30549,5.46305 -96.86941,9.5333 -111.87401,13.98337 -25.4261,7.54091 -28.72442,9.94824 -28.72442,20.96474 0,7.82601 -1.23502,8.72865 -15.874005,11.60188 -8.730709,1.7136 -22.677166,3.97533 -30.992131,5.02605 -23.220207,2.93427 -38.374538,7.4219 -46.411561,13.74384 -4.0245317,3.1657 -8.4944737,5.75582 -9.9332077,5.75582 -1.4387326,0 -2.61585365,-7.94922 -2.61585365,-17.66493 z M 741.17527,206.34608 c 23.8471,-6.37572 39.84058,-12.52404 62.53028,-24.03833 13.96974,-7.08916 29.41587,-11.80292 49.90632,-15.23013 29.57374,-4.94647 39.44656,-8.31883 59.52199,-20.33169 l 10.58265,-6.33255 -7.55909,6.45858 c -10.9865,9.38705 -25.48349,16.55318 -60.83856,30.0737 -60.0318,22.95736 -68.71237,28.18079 -32.76378,19.71529 10.73795,-2.52869 23.48816,-3.82386 28.33358,-2.8781 5.56552,1.08626 11.55149,-0.0768 16.25444,-3.15823 5.40765,-3.54327 8.03444,-3.92307 9.60099,-1.38818 3.23661,5.23685 30.34245,7.16362 30.34245,2.15684 0,-2.1862 6.9899,-7.2488 15.53312,-11.2502 8.54322,-4.00143 19.08361,-11.03716 23.42323,-15.63497 4.33961,-4.59781 9.97221,-8.35965 12.51684,-8.35965 4.60047,0 21.60314,-11.65839 55.42717,-38.00541 9.737,-7.58448 17.2203,-12.59783 16.63,-11.14075 -2.0714,5.11183 -25.5143,23.94869 -51.60761,41.46777 -24.4079,16.38749 -29.702,22.7965 -18.8309,22.7965 2.3964,0 4.35696,2.04094 4.35696,4.53544 0,7.49328 12.2631,5.1869 22.35565,-4.20457 46.0941,-42.89212 82.9689,-75.230425 87.8372,-77.031145 5.8212,-2.15324 5.8212,-2.11137 0,4.35516 -3.2327,3.591135 -11.4134,10.348205 -18.1791,15.015745 -6.7657,4.6675 -15.6098,13.34393 -19.6536,19.28093 -4.0436,5.93697 -9.1397,10.80382 -11.3244,10.81519 -3.8248,0.0211 -16.4864,10.44138 -27.18181,22.37281 -20.19322,22.52677 -30.83028,35.71385 -30.83028,38.22121 0,3.92557 11.99148,3.69807 23.90066,-0.45349 8.55633,-2.98277 9.46863,-4.3602 7.82992,-11.82178 -1.6783,-7.64096 0.1535,-10.04825 19.22631,-25.26605 11.5947,-9.25126 23.868,-20.734 27.274,-25.51729 3.4227,-4.80671 12.4159,-11.07346 20.1054,-14.01009 13.4071,-5.12023 14.0671,-5.10935 18.1645,0.29964 2.3385,3.08715 4.2951,6.31145 4.348,7.16514 0.1324,2.13724 -45.9355,46.85226 -60.6229,58.8426 -6.5724,5.36551 -6.7528,6.08103 -1.7819,7.07093 3.0417,0.60572 8.4842,0.29843 12.0944,-0.68286 8.88,-2.41369 66.55,-58.29537 72.7434,-70.48755 6.0971,-12.00284 34.9592,-40.135885 41.1593,-40.119645 2.9323,0.009 1.6164,2.41121 -3.7231,6.80003 -7.4998,6.164595 -8.012,7.843345 -5.5762,18.275595 3.9548,16.93709 -0.7319,28.59015 -19.552,48.61421 -17.9284,19.07524 -23.921,27.94722 -20.2908,30.04059 1.2518,0.72186 8.3987,0.46428 15.8822,-0.5724 13.8069,-1.91262 17.4258,-7.13433 6.167,-8.89828 -8.985,-1.4077 -7.8323,-3.81859 8.9226,-18.66212 16.6755,-14.77302 21.4792,-25.42007 21.6541,-47.99407 0.1052,-13.56623 1.2955,-16.18031 11.7911,-25.891165 6.4208,-5.94078 12.8832,-10.8014 14.361,-10.8014 5.3349,0 12.4037,10.93445 15.2457,23.583105 2.6482,11.78674 1.9733,14.67926 -7.7497,33.21518 -5.8578,11.16724 -13.0046,23.02533 -15.8817,26.35131 -7.8779,9.10718 -9.1979,15.43835 -4.5088,21.62737 3.6557,4.82506 4.2447,4.91426 4.3277,0.6555 0.053,-2.71138 8.9323,-19.03894 19.732,-36.28347 10.7996,-17.24456 19.6437,-33.65452 19.6536,-36.4666 0.01,-2.8121 1.5304,-6.04785 3.3794,-7.19054 5.7542,-3.55632 8.8484,5.60906 7.2155,21.37429 -1.9889,19.20407 4.4628,51.40157 10.2999,51.40157 2.336,0 4.621,-2.54647 5.0777,-5.65883 0.4568,-3.11237 4.2318,-9.23521 8.3888,-13.6063 4.1569,-4.3711 11.9777,-17.81204 17.3793,-29.86872 5.4017,-12.0567 11.4101,-21.92126 13.3522,-21.92126 5.8172,0 13.3317,10.30199 15.5293,21.28996 2.3543,11.77134 15.9016,32.84895 21.2234,33.02048 1.958,0.0632 6.0399,3.22502 9.0709,7.0265 6.7774,8.50046 19.1346,17.27722 24.3253,17.27722 4.9961,0 5.0784,-12.07018 0.083,-12.17008 -7.59,-0.15178 -28.1968,-23.49426 -36.8655,-41.75966 -4.8934,-10.31055 -11.3425,-21.37138 -14.3315,-24.57963 -2.9889,-3.20824 -4.1896,-6.60249 -2.6681,-7.54282 5.2687,-3.256265 17.9462,5.24082 21.8327,14.6334 2.1472,5.18898 8.0149,13.45609 13.0392,18.37128 8.0276,7.85308 9.265,8.26365 10.2043,3.38594 0.5879,-3.05294 -0.1131,-6.39417 -1.5578,-7.42492 -4.0875,-2.91625 -10.5091,-19.0656 -8.4143,-21.16042 1.0312,-1.03118 5.5042,2.2548 9.94,7.30222 4.4358,5.04746 14.188,16.12815 21.6714,24.62386 7.4835,8.49568 18.3685,17.68017 24.1889,20.41002 5.8205,2.72982 13.9843,6.84655 18.1418,9.14825 4.1575,2.30172 12.6615,5.1254 18.8976,6.27482 18.584,3.42531 13.5002,-3.5552 -11.267,-15.47069 -18.9491,-9.11634 -40.8905,-27.03368 -40.8905,-33.39109 0,-2.61441 30.6464,2.11871 40.8288,6.30568 4.9945,2.0537 18.7703,12.62591 30.6128,23.49381 28.1023,25.78967 35.6343,28.20165 73.1686,23.43204 28.1759,-3.58043 30.1349,-3.4379 53.437,3.8875 13.304,4.18227 34.3937,9.91073 46.8661,12.72992 12.4725,2.81918 29.3422,7.14634 37.4881,9.61588 12.1829,3.69332 15.2581,3.78246 17.3297,0.50238 4.1299,-6.53974 -4.6761,-10.54867 -42.2216,-19.22071 -19.4002,-4.48098 -50.9205,-13.63158 -70.045,-20.33462 -19.1244,-6.70306 -49.9351,-17.28876 -68.4681,-23.52381 -44.3206,-14.91071 -77.1184,-29.92393 -116.2351,-53.206725 -54.7123,-32.56547 -84.4151,-39.77431 -153.9424,-37.36151 -41.5211,1.44087 -44.4521,1.95232 -55.3566,9.65956 -14.6598,10.36147 -51.3982,18.81156 -70.8827,16.30352 -7.8975,-1.01657 -38.2325,-2.66006 -67.411,-3.65217 l -53.05192,-1.8039 -9.93919,8.36331 c -7.98961,6.72281 -103.74298,57.720315 -175.73658,93.595945 -22.72744,11.32543 -69.139,25.47743 -90.34194,27.54741 -24.65391,2.40686 -32.22721,5.64592 -22.05063,9.43095 8.36878,3.1126 44.62554,-0.35761 67.42613,-6.45351 z M 882.89758,183.7137 c 0,-1.46902 2.79901,-3.40293 6.22005,-4.29753 5.10382,-1.33469 5.57998,-0.85536 2.65346,2.67095 -3.99208,4.8101 -8.87351,5.70491 -8.87351,1.62658 z m 99.77956,-78.69664 c 4.15754,-3.40061 8.91967,-6.192355 10.58275,-6.203875 3.2355,-0.0211 -2.23217,4.164525 -12.09453,9.261505 -4.0166,2.07584 -3.50895,1.04911 1.51178,-3.05763 z" />
    <path
       style="fill:#a3be8c;stroke-width:3.02362;fill-opacity:1"
       d="M 566.92911,980.07555 C 532.39107,977.73885 476.03033,969.70968 432.37794,960.90743 371.43796,948.61925 316.58163,945.70844 145.94138,945.70844 2.0157703,945.70844 1.165e-5,945.62494 1.165e-5,939.66119 c 0,-5.93972 2.01575865,-6.04724 113.38581835,-6.04724 h 113.38582 v -16.62992 c 0,-9.14646 0.34016,-17.63702 0.75591,-18.86795 0.41574,-1.23091 -3.27483,-2.93621 -8.20128,-3.78953 -11.02718,-1.91005 -22.79789,-18.16955 -22.77398,-31.45894 0.0242,-13.08863 5.70241,-32.16075 11.21858,-37.67693 6.76121,-6.76124 36.28782,-8.17596 50.1094,-2.40094 13.84592,5.78519 18.42259,16.20265 16.14332,36.74547 -1.35757,12.23555 -3.54537,16.69944 -11.47437,23.41164 -5.38833,4.56143 -14.28199,9.1349 -19.76366,10.16327 l -9.96667,1.86975 v 19.31704 19.31704 h 46.65585 c 45.97982,0 46.67483,-0.0986 47.96618,-6.80315 1.30661,-6.78377 1.3115,-6.78431 1.72211,-0.19019 0.40477,6.50085 1.27004,6.62128 51.05743,7.10612 27.85511,0.27122 54.72755,0.69704 59.71653,0.94615 7.6591,0.38246 9.21288,-0.76975 9.98333,-7.40309 0.65794,-5.66482 -2.00732,-10.77582 -9.55549,-18.324 -18.78195,-18.78195 -18.1052,-51.28229 1.53357,-73.64962 16.33198,-18.60108 31.51038,-10.92253 38.84487,19.65115 5.57631,23.24464 1.75443,37.77695 -14.10638,53.63772 -9.16828,9.16829 -13.15027,15.53024 -12.5144,19.99392 0.51293,3.60077 1.95308,6.2067 3.20032,5.79096 1.24724,-0.41575 20.4776,-0.75591 42.73412,-0.75591 39.58641,0 40.49307,-0.14786 41.69161,-6.80315 2.11378,-11.73746 -0.58575,-16.91973 -9.87673,-18.96037 -16.60041,-3.64607 -23.99095,-24.25408 -17.86132,-49.80517 4.66152,-19.43149 13.09313,-25.601 34.56356,-25.29066 29.45715,0.42579 42.98104,13.75685 40.15993,39.58738 -1.98612,18.18557 -8.88978,26.93503 -26.06631,33.03561 -13.30747,4.7264 -14.99959,6.35233 -16.05954,15.43145 -0.65162,5.5816 -0.3248,10.67988 0.72627,11.32944 1.05105,0.6496 47.38905,1.39075 102.97331,1.64703 l 101.06233,0.46591 1.90999,-8.63368 1.90996,-8.63371 0.35776,8.31496 c 0.24552,5.70503 2.01857,8.36074 5.6491,8.46079 17.32637,0.47752 298.46164,-0.52868 299.00314,-1.07015 0.3625,-0.3625 1.6044,-12.31007 2.7598,-26.55015 l 2.1008,-25.89107 -10.0879,-11.8684 c -7.8454,-9.23013 -8.267,-10.24143 -1.8966,-4.54941 9.4936,8.4825 12.3574,7.26074 9.516,-4.0599 -1.3075,-5.2094 -6.0742,-10.10691 -13.5483,-13.91988 -6.3421,-3.23549 -12.4741,-7.40857 -13.6267,-9.27348 -3.2404,-5.24314 10.7307,-0.1654 21.3389,7.75565 4.9889,3.72519 12.2261,7.77065 16.0827,8.98992 6.4738,2.04675 6.6102,2.51055 1.7764,6.04504 -6.0473,4.4219 -3.8669,13.77357 3.2113,13.77357 3.6858,0 3.3967,1.23366 -1.4169,6.04724 -4.7692,4.76919 -6.0472,10.07873 -6.0472,25.12288 0,32.29969 -19.2543,29.47826 195.0236,28.57806 l 187.4645,-0.78756 0.9082,-17.43096 c 0.906,-17.39049 0.886,-17.43542 -8.6272,-19.33807 -18.0188,-3.60373 -25.7766,-28.24241 -17.5442,-55.71969 4.6461,-15.50708 18.5046,-22.36083 40.0535,-19.80869 19.2889,2.2845 29.7585,9.91803 33.4187,24.36598 5.7016,22.5067 -8.7843,45.08359 -31.9504,49.79627 -10.1542,2.06568 -10.2164,2.18281 -11.1128,20.91348 l -0.9016,18.83618 78.0038,-0.80725 78.004,-0.80731 0.9384,-11.33859 c 0.8158,-9.85833 0.093,-11.33858 -5.5237,-11.33858 -3.5546,0 -10.4397,-3.9772 -15.3008,-8.83828 -7.4382,-7.43817 -8.8383,-11.26034 -8.8383,-24.12778 0,-40.08552 18.4595,-52.19672 59.7397,-39.19524 13.8002,4.34639 17.0878,12.04756 16.1855,37.91355 -0.4741,13.5887 -12.5635,26.60561 -28.978,31.20148 -13.2161,3.70022 -13.6874,4.23511 -13.6874,15.53372 v 11.70153 H 1768.8189 1920 v 17.06411 17.06411 l -20.9782,-1.94972 c -11.5381,-1.07236 -24.4246,-3.25997 -28.6365,-4.86134 -27.9929,-10.64282 -129.98,-19.76243 -192.275,-17.19305 -58.581,2.41618 -87.9034,6.33637 -133.0394,17.7864 -33.2505,8.43488 -42.7039,9.58609 -78.6142,9.57329 -43.9445,-0.015 -66.5373,-4.03789 -101.7046,-18.10698 l -19.4413,-7.77776 -179.0491,1.40379 c -99.0238,0.77637 -190.53604,2.84405 -204.74991,4.62623 -14.1354,1.77232 -48.15123,5.39864 -75.59055,8.05849 -27.43943,2.65983 -78.96144,8.17458 -114.49346,12.25503 -62.25915,7.1497 -162.82,11.3389 -204.49867,8.519 z"
       id="path1090" />
    <path
       style="fill:#a3be8c;stroke-width:3.02362;fill-opacity:1"
       d="m 1036.1938,814.66258 c -0.8555,-2.22956 -0.4244,-5.88379 0.9579,-8.12054 3.3722,-5.45628 12.4195,1.63341 10.0302,7.85987 -2.0911,5.44924 -8.9347,5.61157 -10.9881,0.26064 z"
       id="path1088" />
    <path
       style="fill:#a3be8c;stroke-width:3.02362;fill-opacity:1"
       d="m 1077.139,833.15763 c 1.6766,-5.0298 28.953,-20.80712 30.8014,-17.81628 1.6192,2.61994 -23.7159,21.51667 -28.8477,21.51667 -1.7529,0 -2.6321,-1.66517 -1.9537,-3.70039 z"
       id="path1086" />
    <path
       style="fill:#a3be8c;stroke-width:3.02362;fill-opacity:1"
       d="m 1052.589,832.99344 c -4.6844,-4.68438 -4.2426,-9.80715 1.2379,-14.35555 3.8255,-3.1749 5.343,-2.86724 8.7344,1.77081 6.7023,9.16581 -2.181,20.37607 -9.9723,12.58474 z"
       id="path1084" />
    <path
       style="fill:#a3be8c;stroke-width:3.02362;fill-opacity:1"
       d="m 1067.3386,842.90529 c 0,-1.66298 1.441,-3.02362 3.2021,-3.02362 1.7611,0 2.3612,1.36064 1.3334,3.02362 -1.0279,1.663 -2.4688,3.02363 -3.2021,3.02363 -0.7334,0 -1.3334,-1.36063 -1.3334,-3.02363 z"
       id="path1082" />
    <path
       style="fill:#a3be8c;stroke-width:3.02362;fill-opacity:1"
       d="m 1081.9758,845.04599 c 5.1535,-6.27232 48.1586,-33.87842 57.1738,-36.70139 3.7418,-1.17165 6.8032,-3.41748 6.8032,-4.99073 0,-1.57325 -4.9284,-0.80123 -10.9519,1.71558 -14.4469,6.03629 -17.0493,5.77669 -14.7489,-1.47124 1.7662,-5.56482 -2.7428,-8.94663 -5.0394,-3.77953 -0.5542,1.24724 -8.4913,6.07334 -17.6377,10.72467 l -16.63,8.45698 10.288,-8.75545 c 6.0872,-5.18046 9.397,-10.19694 8.106,-12.28582 -1.2,-1.94171 -3.4707,-2.73384 -5.0459,-1.76029 -1.5752,0.97352 -2.2168,2.8172 -1.4259,4.09707 0.791,1.27987 -4.0674,5.42138 -10.7966,9.20339 -8.8252,4.96001 -13.1527,5.95848 -15.5284,3.58272 -2.3758,-2.37572 -1.7458,-5.00394 2.2605,-9.43082 6.1616,-6.80857 4.1404,-12.00612 -2.5195,-6.47887 -2.3239,1.92868 -6.454,2.65138 -9.1782,1.60602 -3.8451,-1.47549 -4.4924,-0.64173 -2.8942,3.72737 1.9155,5.23607 1.6547,5.29152 -3.7452,0.79624 -10.9035,-9.07697 -16.1532,-9.24565 -18.3259,-0.58888 l -2.0009,7.9722 -5.3178,-6.56712 c -6.1415,-7.58443 -10.3341,-8.66056 -7.7768,-1.99605 1.5333,3.99536 0.5865,3.96727 -7.5165,-0.22284 -5.0989,-2.63671 -10.05131,-4.01337 -11.00541,-3.05927 -2.0797,2.07969 -3.0012,1.31519 16.65571,13.81896 8.7291,5.55251 15.3314,10.63489 14.6722,11.29419 -0.6594,0.65931 -10.8287,-3.65081 -22.5986,-9.57801 -16.82058,-8.4708 -24.97441,-10.77686 -38.10522,-10.77686 -9.18791,0 -16.70536,1.36063 -16.70536,3.02362 0,1.66299 6.97635,3.02362 15.50295,3.02362 11.27612,0 20.77279,2.59433 34.83123,9.51525 25.2822,12.44634 22.7682,14.59563 -3.17431,2.71376 -13.51738,-6.19107 -24.85463,-9.20539 -34.62272,-9.20539 -11.2054,0 -17.78078,-2.1572 -28.77733,-9.44098 -20.70864,-13.71681 -17.62384,-17.82534 17.75195,-23.643 62.63461,-10.30045 72.62291,-10.39068 146.64581,-1.32456 59.0726,7.23507 61.3543,7.79711 65.5106,16.13664 3.5897,7.20252 3.2238,7.57832 -12.0064,12.33224 -18.0614,5.63757 -34.2141,13.47311 -42.9216,20.82076 -10.6242,8.96513 -33.4129,22.61693 -29.2053,17.49582 z"
       id="path1080" />
    <path
       style="fill:#a3be8c;stroke-width:3.02362;fill-opacity:1"
       d="m 744.57134,896.57458 c -17.73112,-18.34721 -18.79583,-48.9043 -2.4507,-70.33389 9.48365,-12.4337 18.06224,-17.56446 25.44809,-15.22028 12.86848,4.08429 22.62734,45.20999 15.70514,66.18452 -3.06007,9.27205 -21.80231,29.19642 -27.46418,29.19642 -0.95785,0 -6.01513,-4.42205 -11.23835,-9.82677 z"
       id="path1078" />
    <path
       style="fill:#8fbcbb;stroke-width:3.02362;fill-opacity:1"
       d="m 335.62204,910.75833 c 0,-2.59263 1.36062,-3.87296 3.02362,-2.84517 1.66299,1.02779 3.02362,3.14905 3.02362,4.71389 0,1.56484 -1.36063,2.84517 -3.02362,2.84517 -1.663,0 -3.02362,-2.12125 -3.02362,-4.71389 z"
       id="path1076" />
    <path
       style="fill:#ebcb8b;stroke-width:3.02362;fill-opacity:1"
       d="m 353.49927,902.58705 c -1.32611,-18.52098 -5.09076,-22.50303 -10.76401,-11.38547 l -3.46945,6.79888 -2.02565,-6.38223 c -3.62756,-11.4295 -7.65448,-6.7392 -8.14927,9.49179 -0.35413,11.61693 -0.78867,13.03595 -1.62042,5.29133 -0.6251,-5.82047 -2.60173,-14.29634 -4.39253,-18.83526 -2.47659,-6.27713 -2.0935,-13.15296 1.6004,-28.7244 2.67101,-11.25952 4.52524,-29.31592 4.1205,-40.12537 -0.69186,-18.47844 -1.14836,-19.60946 -7.63546,-18.91621 -6.24826,0.66775 -6.56232,0.0967 -3.32686,-6.04723 8.84101,-16.78906 14.75685,-13.07919 14.77877,9.26788 0.0242,24.28863 4.3587,37.07801 16.58347,48.92674 11.54523,11.19009 12.80102,19.69726 7.81513,52.94204 l -2.26735,15.11812 z"
       id="path958" />
  </g>
</svg>
