<?xml version="1.0" encoding="UTF-8" standalone="no"?>
<!-- Created with Inkscape (http://www.inkscape.org/) -->

<svg
   width="1920"
   height="1080"
   viewBox="0 0 508 285.75"
   version="1.1"
   id="svg5"
   inkscape:version="1.1.2 (0a00cf5339, 2022-02-04, custom)"
   sodipodi:docname="desktop-wallpaper-manjaro-nord-1920x1080-V4.svg"
   inkscape:export-filename="/home/thinus/.obsidian/Resources/Pictures/desktop-wallpaper-manjaro-nord-1920x1080-V3.png"
   inkscape:export-xdpi="96"
   inkscape:export-ydpi="96"
   xmlns:inkscape="http://www.inkscape.org/namespaces/inkscape"
   xmlns:sodipodi="http://sodipodi.sourceforge.net/DTD/sodipodi-0.dtd"
   xmlns="http://www.w3.org/2000/svg"
   xmlns:svg="http://www.w3.org/2000/svg">
  <sodipodi:namedview
     id="namedview7"
     pagecolor="#505050"
     bordercolor="#eeeeee"
     borderopacity="1"
     inkscape:pageshadow="0"
     inkscape:pageopacity="0"
     inkscape:pagecheckerboard="0"
     inkscape:document-units="mm"
     showgrid="false"
     units="px"
     showborder="false"
     inkscape:zoom="0.65775662"
     inkscape:cx="819.45203"
     inkscape:cy="535.15235"
     inkscape:window-width="2560"
     inkscape:window-height="1410"
     inkscape:window-x="0"
     inkscape:window-y="0"
     inkscape:window-maximized="1"
     inkscape:current-layer="layer1"
     inkscape:snap-bbox="true"
     inkscape:bbox-paths="true" />
  <defs
     id="defs2" />
  <g
     inkscape:label="Layer 1"
     inkscape:groupmode="layer"
     id="layer1">
    <rect
       style="opacity:1;fill:#4c566a;fill-opacity:1;fill-rule:evenodd;stroke:none;stroke-width:1.584;stroke-miterlimit:4;stroke-dasharray:none"
       id="rect4318"
       width="508"
       height="285.75"
       x="-3.5527137e-14"
       y="-2.1316282e-14" />
    <g
       id="g4447"
       style="fill:#a3be8c;fill-opacity:1">
      <path
         style="fill:#a3be8c;stroke-width:0.101591;fill-opacity:1"
         d="m 265.684,142.875 v -28.18899 h 8.2804 8.2804 v 28.18899 28.18899 h -8.2804 -8.2804 z"
         id="path4424" />
      <path
         style="fill:#a3be8c;stroke-width:0.101591;fill-opacity:1"
         d="M 245.7704,152.83003 V 134.59607 H 254 h 8.2296 v 18.23396 18.23396 H 254 245.7704 Z"
         id="path4422" />
      <path
         style="fill:#a3be8c;stroke-width:0.101591;fill-opacity:1"
         d="m 225.7552,142.875 v -28.18899 h 18.2372 18.2372 v 8.22764 8.22764 l -9.9822,0.0259 -9.9822,0.0259 -0.0256,19.93545 -0.0257,19.93546 h -8.22934 -8.22935 z"
         id="path4420" />
    </g>
    <path
       style="fill:#8fbcbb;stroke-width:0.101591;fill-opacity:1"
       d="M 209.04479,285.61096 C 209.58609,285.23545 507.76342,93.425264 507.873,93.382097 507.97439,93.342157 508,98.269692 508,117.815 v 24.48292 l -1.94909,1.25358 c -1.07201,0.68945 -2.77508,1.78715 -3.7846,2.43932 -1.00953,0.65217 -2.49845,1.61037 -3.30871,2.12933 -1.92992,1.2361 -7.18898,4.61966 -10.0076,6.43866 -2.69502,1.73924 -7.83101,5.0411 -9.652,6.20515 -0.72644,0.46437 -1.84658,1.18503 -2.4892,1.60148 -0.64262,0.41645 -1.83134,1.18199 -2.6416,1.70122 -1.58253,1.01409 -5.43449,3.49325 -8.35539,5.37757 -0.9912,0.63945 -2.49996,1.61029 -3.3528,2.15742 -3.15573,2.02453 -6.56769,4.21911 -8.35146,5.37166 -1.00934,0.65217 -2.49809,1.61037 -3.30835,2.12934 -1.95869,1.25452 -7.22729,4.64432 -10.0076,6.43886 -2.49521,1.61052 -7.30286,4.70039 -9.398,6.04008 -0.75438,0.48237 -2.08026,1.33665 -2.9464,1.89838 -1.66149,1.07756 -6.76199,4.35829 -8.9916,5.78354 -0.72644,0.46437 -1.84658,1.18536 -2.4892,1.60219 -0.64262,0.41684 -1.83134,1.18285 -2.6416,1.70226 -2.01418,1.29115 -6.17367,3.96664 -8.35634,5.375 -0.99171,0.6399 -2.61477,1.68374 -3.6068,2.31963 -2.11161,1.35356 -6.55693,4.21472 -9.72846,6.26155 -2.50843,1.61889 -7.3196,4.71096 -9.398,6.03994 -0.75438,0.48237 -2.08026,1.33665 -2.9464,1.89839 -1.66149,1.07756 -6.76199,4.35828 -8.9916,5.78353 -0.72644,0.46437 -1.84658,1.18504 -2.4892,1.60148 -0.64262,0.41646 -1.83134,1.182 -2.6416,1.70123 -1.6829,1.07841 -5.70263,3.66465 -8.35698,5.37674 -2.56824,1.65656 -8.24547,5.30606 -10.33742,6.64524 -0.9779,0.62599 -2.37236,1.52582 -3.0988,1.99959 -0.72644,0.47376 -2.09804,1.35751 -3.048,1.96385 -1.83619,1.17202 -4.87656,3.12748 -8.5344,5.48904 -1.99416,1.28747 -4.71818,3.03883 -9.6012,6.17296 -0.86614,0.55593 -2.032,1.30588 -2.5908,1.66657 -0.5588,0.36069 -1.72466,1.11111 -2.5908,1.66758 -4.01935,2.58238 -6.68854,4.30046 -8.37565,5.39114 -1.00934,0.65252 -2.79527,1.80151 -3.96875,2.55329 -3.0901,1.97968 -7.24062,4.64984 -9.3472,6.01336 -1.91119,1.23705 -7.67504,4.94159 -9.97132,6.40875 l -1.33532,0.85318 h -38.08268 c -32.25708,0 -38.05204,-0.0213 -37.88229,-0.13904 z"
       id="path4196" />
    <path
       style="fill:#88c0d0;fill-opacity:1;stroke-width:0.101591"
       d="m 243.04782,312.47116 c 0.5413,-0.37551 298.71863,-192.1857 298.82821,-192.22887 0.10139,-0.0399 0.127,4.8876 0.127,24.43291 v 24.48292 l -1.94909,1.25358 c -1.07201,0.68945 -2.77508,1.78715 -3.7846,2.43932 -1.00953,0.65217 -2.49845,1.61037 -3.30871,2.12933 -1.92992,1.2361 -7.18898,4.61966 -10.0076,6.43866 -2.69502,1.73924 -7.83101,5.0411 -9.652,6.20515 -0.72644,0.46437 -1.84658,1.18503 -2.4892,1.60148 -0.64262,0.41645 -1.83134,1.18199 -2.6416,1.70122 -1.58253,1.01409 -5.43449,3.49325 -8.35539,5.37757 -0.9912,0.63945 -2.49996,1.61029 -3.3528,2.15742 -3.15573,2.02453 -6.56769,4.21911 -8.35146,5.37166 -1.00934,0.65217 -2.49809,1.61037 -3.30835,2.12934 -1.95869,1.25452 -7.22729,4.64432 -10.0076,6.43886 -2.49521,1.61052 -7.30286,4.70039 -9.398,6.04008 -0.75438,0.48237 -2.08026,1.33665 -2.9464,1.89838 -1.66149,1.07756 -6.76199,4.35829 -8.9916,5.78354 -0.72644,0.46437 -1.84658,1.18536 -2.4892,1.60219 -0.64262,0.41684 -1.83134,1.18285 -2.6416,1.70226 -2.01418,1.29115 -6.17367,3.96664 -8.35634,5.375 -0.99171,0.6399 -2.61477,1.68374 -3.6068,2.31963 -2.11161,1.35356 -6.55693,4.21472 -9.72846,6.26155 -2.50843,1.61889 -7.3196,4.71096 -9.398,6.03994 -0.75438,0.48237 -2.08026,1.33665 -2.9464,1.89839 -1.66149,1.07756 -6.76199,4.35828 -8.9916,5.78353 -0.72644,0.46437 -1.84658,1.18504 -2.4892,1.60148 -0.64262,0.41646 -1.83134,1.182 -2.6416,1.70123 -1.6829,1.07841 -5.70263,3.66465 -8.35698,5.37674 -2.56824,1.65656 -8.24547,5.30606 -10.33742,6.64524 -0.9779,0.62599 -2.37236,1.52582 -3.0988,1.99959 -0.72644,0.47376 -2.09804,1.35751 -3.048,1.96385 -1.83619,1.17202 -4.87656,3.12748 -8.5344,5.48904 -1.99416,1.28747 -4.71818,3.03883 -9.6012,6.17296 -0.86614,0.55593 -2.032,1.30588 -2.5908,1.66657 -0.5588,0.36069 -1.72466,1.11111 -2.5908,1.66758 -4.01935,2.58238 -6.68854,4.30046 -8.37565,5.39114 -1.00934,0.65252 -2.79527,1.80151 -3.96875,2.55329 -3.0901,1.97968 -7.24062,4.64984 -9.3472,6.01336 -1.91119,1.23705 -7.67504,4.94159 -9.97132,6.40875 l -1.33532,0.85318 h -38.08268 c -32.25708,0 -38.05204,-0.0213 -37.88229,-0.13904 z"
       id="path4521" />
    <path
       style="fill:#81a1c1;fill-opacity:1;stroke-width:0.101591"
       d="m 272.01977,342.49661 c 0.5413,-0.37551 298.71863,-192.1857 298.82821,-192.22887 0.10139,-0.0399 0.127,4.8876 0.127,24.43291 v 24.48292 l -1.94909,1.25358 c -1.07201,0.68945 -2.77508,1.78715 -3.7846,2.43932 -1.00953,0.65217 -2.49845,1.61037 -3.30871,2.12933 -1.92992,1.2361 -7.18898,4.61966 -10.0076,6.43866 -2.69502,1.73924 -7.83101,5.0411 -9.652,6.20515 -0.72644,0.46437 -1.84658,1.18503 -2.4892,1.60148 -0.64262,0.41645 -1.83134,1.18199 -2.6416,1.70122 -1.58253,1.01409 -5.43449,3.49325 -8.35539,5.37757 -0.9912,0.63945 -2.49996,1.61029 -3.3528,2.15742 -3.15573,2.02453 -6.56769,4.21911 -8.35146,5.37166 -1.00934,0.65217 -2.49809,1.61037 -3.30835,2.12934 -1.95869,1.25452 -7.22729,4.64432 -10.0076,6.43886 -2.49521,1.61052 -7.30286,4.70039 -9.398,6.04008 -0.75438,0.48237 -2.08026,1.33665 -2.9464,1.89838 -1.66149,1.07756 -6.76199,4.35829 -8.9916,5.78354 -0.72644,0.46437 -1.84658,1.18536 -2.4892,1.60219 -0.64262,0.41684 -1.83134,1.18285 -2.6416,1.70226 -2.01418,1.29115 -6.17367,3.96664 -8.35634,5.375 -0.99171,0.6399 -2.61477,1.68374 -3.6068,2.31963 -2.11161,1.35356 -6.55693,4.21472 -9.72846,6.26155 -2.50843,1.61889 -7.3196,4.71096 -9.398,6.03994 -0.75438,0.48237 -2.08026,1.33665 -2.9464,1.89839 -1.66149,1.07756 -6.76199,4.35828 -8.9916,5.78353 -0.72644,0.46437 -1.84658,1.18504 -2.4892,1.60148 -0.64262,0.41646 -1.83134,1.182 -2.6416,1.70123 -1.6829,1.07841 -5.70263,3.66465 -8.35698,5.37674 -2.56824,1.65656 -8.24547,5.30606 -10.33742,6.64524 -0.9779,0.62599 -2.37236,1.52582 -3.0988,1.99959 -0.72644,0.47376 -2.09804,1.35751 -3.048,1.96385 -1.83619,1.17202 -4.87656,3.12748 -8.5344,5.48904 -1.99416,1.28747 -4.71818,3.03883 -9.6012,6.17296 -0.86614,0.55593 -2.032,1.30588 -2.5908,1.66657 -0.5588,0.36069 -1.72466,1.11111 -2.5908,1.66758 -4.01935,2.58238 -6.68854,4.30046 -8.37565,5.39114 -1.00934,0.65252 -2.79527,1.80151 -3.96875,2.55329 -3.0901,1.97968 -7.24062,4.64984 -9.3472,6.01336 -1.91119,1.23705 -7.67504,4.94159 -9.97132,6.40875 l -1.33532,0.85318 h -38.08268 c -32.25708,0 -38.05204,-0.0213 -37.88229,-0.13904 z"
       id="path4541" />
  </g>
</svg>
