<?xml version="1.0" encoding="UTF-8" standalone="no"?>
<!-- Created with Inkscape (http://www.inkscape.org/) -->

<svg
   width="1920"
   height="1080"
   viewBox="0 0 1920 1080"
   version="1.1"
   id="svg5"
   inkscape:version="1.1.2 (0a00cf5339, 2022-02-04, custom)"
   sodipodi:docname="desktop-wallpaper-manjaro-nord-1920x1080.svg"
   inkscape:export-filename="/home/thinus/.obsidian/Resources/Pictures/desktop-wallpaper-manjaro-nord-1920x1080.png"
   inkscape:export-xdpi="96"
   inkscape:export-ydpi="96"
   xmlns:inkscape="http://www.inkscape.org/namespaces/inkscape"
   xmlns:sodipodi="http://sodipodi.sourceforge.net/DTD/sodipodi-0.dtd"
   xmlns="http://www.w3.org/2000/svg"
   xmlns:svg="http://www.w3.org/2000/svg">
  <sodipodi:namedview
     id="namedview7"
     pagecolor="#505050"
     bordercolor="#eeeeee"
     borderopacity="1"
     inkscape:pageshadow="0"
     inkscape:pageopacity="0"
     inkscape:pagecheckerboard="0"
     inkscape:document-units="px"
     showgrid="false"
     showborder="false"
     inkscape:zoom="0.65775662"
     inkscape:cx="849.85842"
     inkscape:cy="567.07905"
     inkscape:window-width="2560"
     inkscape:window-height="1410"
     inkscape:window-x="0"
     inkscape:window-y="0"
     inkscape:window-maximized="1"
     inkscape:current-layer="layer1" />
  <defs
     id="defs2" />
  <g
     inkscape:label="Layer 1"
     inkscape:groupmode="layer"
     id="layer1">
    <rect
       style="fill:#3b4252;fill-opacity:1;fill-rule:evenodd;stroke-width:5.29134"
       id="rect9986"
       width="1920"
       height="1080"
       x="0"
       y="0" />
    <g
       id="g9962"
       transform="translate(-1.7184477,87.63782)">
      <path
         id="path1220"
         style="fill:#4c566a;fill-opacity:1"
         d="m 1176.5077,575.41187 c -3.9946,-1.63495 -5.8622,-4.91351 -6.3077,-11.07328 -0.4109,-5.67991 -0.2781,-6.09559 2.9924,-9.36602 2.8381,-2.83818 4.4373,-3.54578 9.3688,-4.14562 8.593,-1.04519 16.6466,-3.75868 21.0065,-7.07766 5.1376,-3.91099 11.2168,-13.51971 11.8441,-18.72049 0.6234,-5.16813 1.5854,-72.22795 1.5914,-110.93626 v -28.76468 l 3.2843,-3.58385 c 5.7413,-6.26484 15.9097,-5.59876 20.4563,1.33998 1.637,2.4983 1.7592,7.55912 1.7567,72.72919 0,63.73119 -0.1614,70.62988 -1.7631,76.54405 -7.1032,26.22878 -30.0116,44.12039 -56.2342,43.91925 -3.3,-0.0253 -6.9,-0.41439 -8,-0.86461 z M 654.30633,515.78075 c -7.12507,-3.61941 -6.76728,-0.25792 -7.07846,-66.50355 -0.21776,-46.35706 0.004,-60.42881 1,-63.40449 1.77859,-5.31471 5.59377,-7.9001 11.65796,-7.9001 5.99284,0 9.61351,2.18901 11.88177,7.18357 0.92446,2.03558 1.76246,3.84433 1.86222,4.01945 0.0998,0.17512 2.13888,-1.17578 4.53137,-3.00201 8.20531,-6.26325 16.19086,-9.08914 27.17992,-9.6183 16.59358,-0.79904 27.80369,3.02101 38.06736,12.97215 l 5.90073,5.72105 5.59927,-4.99971 c 10.18425,-9.09374 23.22575,-13.89158 37.76015,-13.89158 20.67898,0 35.36937,8.014 43.67958,23.82836 6.38985,12.1599 6.62826,14.46851 6.64476,64.34491 l 0.0148,44.67328 -2.573,3.05784 c -5.84427,6.94551 -17.10807,5.70725 -21.76962,-2.3932 -0.8072,-1.40263 -1.30869,-15.47623 -1.6574,-46.51119 l -0.5,-44.5 -2.65101,-5 c -3.29615,-6.21675 -6.03843,-8.81156 -12.18651,-11.53115 -17.15827,-7.58992 -36.75774,1.54988 -41.84983,19.51577 -0.7214,2.54527 -1.3531,19.51454 -1.72536,46.3489 l -0.58729,42.33353 -3.20578,2.86287 c -6.15273,5.49459 -14.73873,4.47087 -19.72969,-2.3524 -1.99299,-2.72469 -2.08186,-4.35327 -2.56453,-47 -0.49212,-43.48115 -0.53631,-44.25634 -2.80361,-49.17752 -4.72103,-10.24699 -12.56704,-14.88078 -25.19639,-14.88078 -9.78839,0 -16.40926,2.81764 -22.47568,9.56495 -8.42143,9.36666 -8.52379,10.05206 -8.52806,57.10334 -0.004,39.044 -0.10596,41.38014 -1.94649,44.39867 -2.29937,3.77105 -4.43769,5.05452 -9.67453,5.80686 -2.56378,0.36833 -4.95866,0.006 -7.07665,-1.06952 z m 267.14936,-0.74229 c -11.04027,-3.66482 -17.34624,-7.56872 -25.44795,-15.75433 -12.30343,-12.43083 -17.8956,-24.144 -20.18647,-42.28189 -4.44854,-35.22129 14.80398,-66.44899 47.68647,-77.34775 7.10454,-2.35477 9.56705,-2.65407 22,-2.67397 12.72943,-0.0204 14.72604,0.22858 22,2.74309 22.69698,7.84605 40.49426,27.04833 46.00216,49.63362 1.8403,7.54614 3.2895,59.11509 2.0362,72.45448 -0.6712,7.14385 -1.0752,8.28229 -3.964,11.17113 -4.0109,4.01091 -8.945,5.08204 -13.89078,3.01553 -5.2746,-2.20385 -7.6753,-6.73145 -7.6798,-14.48381 v -6.34267 l -5.25,4.74539 c -7.0433,6.36626 -14.46435,11.02898 -22.55354,14.17053 -5.77839,2.24413 -8.5474,2.64805 -20.1965,2.94614 -12.03832,0.30804 -14.26355,0.092 -20.55205,-1.99549 z m 30.93911,-20.6569 c 7.57449,-1.24043 17.22332,-5.7741 22.57093,-10.60534 24.14289,-21.81164 19.09919,-65.9094 -9.10808,-79.63354 -28.47728,-13.85552 -60.45479,3.40472 -65.07833,35.1268 -3.80461,26.10338 11.29138,49.31606 35.49108,54.57364 7.7816,1.69061 8.86741,1.72687 16.1244,0.53844 z m 98.1129,21.57316 c -1.65,-0.72833 -3.9,-2.33269 -5,-3.56524 -1.9481,-2.18289 -2.0065,-3.83961 -2.2513,-63.88663 -0.1963,-48.16424 0.025,-62.18578 1.0146,-64.1156 1.8708,-3.65039 7.468,-7.03061 11.6346,-7.02628 6.7858,0.007 13.1021,6.24711 13.1021,12.94393 0,1.75408 0.9291,1.38923 7.25,-2.84702 11.477,-7.69182 19.1929,-10.28455 32.3533,-10.87148 13.5344,-0.60361 23.0808,1.24638 33.6077,6.51278 9.9055,4.95554 19.4178,14.56355 24.1415,24.38437 6.3499,13.20201 6.6162,15.67269 6.6327,61.52009 l 0.015,41.14641 -3.4786,3.05426 c -4.6339,4.06857 -9.338,4.89876 -14.2001,2.50605 -7.152,-3.51961 -7.123,-3.34915 -7.8064,-45.85313 -0.336,-20.9 -0.8512,-39.55015 -1.1448,-41.44477 -1.4017,-9.04556 -9.4915,-19.5733 -18.5569,-24.14955 -20.0919,-10.14233 -47.2264,-2.91182 -56.0134,14.92582 -2.2634,4.59459 -2.3077,5.34134 -2.7998,47.1685 -0.5618,47.75652 -0.3258,46.3127 -8.0797,49.41521 -4.7419,1.89735 -6.4665,1.92752 -10.4203,0.18228 z m 266.5716,-0.13253 c -22.6274,-6.31621 -40.9713,-25.96467 -46.6476,-49.96496 -2.2168,-9.37334 -2.1895,-26.80279 0.056,-36 6.1202,-25.06256 24.9475,-44.48852 49.6321,-51.21029 7.8963,-2.15021 27.8756,-2.38972 35.8875,-0.43022 18.3791,4.49506 36.0747,18.65921 45.125,36.11951 6.8155,13.14892 7.2671,16.40043 7.6606,55.15916 0.2337,23.01522 -0.015,36.00103 -0.7419,38.69971 -2.0077,7.4557 -11.0783,11.18839 -17.9664,7.39337 -4.7625,-2.62414 -7.0769,-7.39934 -7.0769,-14.60248 v -5.90244 l -4.9368,4.61781 c -6.7206,6.28634 -15.8606,12.04382 -23.3404,14.70262 -8.2268,2.92431 -29.3987,3.7218 -37.6512,1.41821 z m 28.9284,-21.525 c 9.1303,-1.46778 16.1158,-4.95497 22.9128,-11.43824 10.5974,-10.10817 15.7954,-23.85886 14.7433,-39.00172 -1.9303,-27.78341 -21.7302,-45.89308 -48.3657,-44.23685 -15.7699,0.9806 -29.7864,10.69398 -37.088,25.70187 -3.5095,7.21369 -3.6817,8.0607 -4.0391,19.86445 -0.3281,10.83553 -0.1024,13.07714 1.8623,18.5 6.7859,18.72979 21.8909,30.082 41.9744,31.54607 0.825,0.0601 4.425,-0.36087 8,-0.93558 z m 263.2155,21.09441 c -10.8753,-2.92847 -20.6501,-8.50775 -29.2231,-16.67998 -13.9139,-13.26338 -19.8935,-27.21594 -20.7231,-48.35439 -0.4102,-10.45249 -0.1436,-13.95172 1.6281,-21.36272 5.8853,-24.61925 24.098,-43.64639 48.1026,-50.25371 9.2601,-2.54886 31.038,-2.52466 40,0.0444 19.2403,5.5156 34.3809,17.94312 42.8579,35.17801 5.574,11.33279 6.5821,16.46191 6.5633,33.39397 -0.016,14.12014 -0.2556,16.21218 -2.6937,23.5 -7.069,21.13048 -21.6427,36.00494 -42.2371,43.10904 -7.0176,2.42075 -9.7557,2.7947 -22.4904,3.0716 -11.965,0.26016 -15.7735,-0.0276 -21.7845,-1.64627 z m 33.7845,-22.70376 c 18.5522,-5.03683 31,-23.36581 31,-45.64636 0,-28.20475 -18.4465,-47.75891 -44.9601,-47.6598 -8.1923,0.0306 -13.7955,1.3046 -20.7802,4.72466 -10.5507,5.16615 -20.3402,17.94504 -23.1744,30.25089 -1.4588,6.33394 -1.3105,20.56953 0.2761,26.5 6.8604,25.6444 31.1063,39.03402 57.6386,31.83061 z m -204.2342,20.75142 -3.2658,-2.91797 v -62.83203 c 0,-47.48299 0.2969,-63.34983 1.2154,-64.95168 1.5152,-2.6424 7.1314,-5.38035 11.0365,-5.38035 7.7241,0 12.2481,4.20757 12.2481,11.39132 0,4.82648 1.6181,5.36794 5.3364,1.78571 4.823,-4.64649 14.4041,-10.02963 21.93,-12.32134 5.6741,-1.72784 8.7411,-1.99734 19,-1.66955 10.9049,0.34844 12.7963,0.68339 17.414,3.08395 6.2911,3.27048 8.3196,5.95965 8.3196,11.02934 0,2.92681 -0.7035,4.55788 -2.9231,6.77749 -3.3384,3.33839 -4.7179,3.47298 -18.3853,1.79381 -22.0194,-2.7053 -41.0584,4.7412 -47.5766,18.60803 -1.9304,4.10671 -2.0862,6.85662 -2.7015,47.68962 -0.4333,28.75152 -1.0333,44.16297 -1.7832,45.80236 -1.5549,3.39889 -5.1769,4.99709 -11.3645,5.01452 -4.3819,0.0123 -5.7661,-0.46043 -8.5,-2.90323 z M 1222.5099,359.83929 c -4.6373,-2.50687 -6.2918,-4.36435 -8.0964,-9.08967 -3.0153,-7.89543 -0.2155,-15.87477 7.1724,-20.44072 2.8565,-1.76539 4.6038,-2.10131 9.0236,-1.73479 9.3304,0.77376 15.3982,7.19021 15.3982,16.28312 0,5.70904 -2.3572,10.22887 -7.2085,13.82234 -3.6575,2.70911 -12.2867,3.32347 -16.2893,1.15972 z" />
      <path
         id="path1194"
         style="fill:#698989;fill-opacity:1"
         d="M 225.00774,452.35285 V 281.34846 l 110.25,0.25439 110.25,0.25438 0.25934,49.75 0.25933,49.75 h -60.50933 -60.50934 v 121 121 h -50 -50 z m 121,60.51372 V 402.35723 h 50.00438 50.00439 l -0.25439,110.25 -0.25438,110.25 -49.75,0.25934 -49.75,0.25933 z m 121,-60.5 V 281.35723 h 50.00287 50.00286 l -0.25286,170.75 -0.25287,170.75 -49.75,0.25934 -49.75,0.25933 z" />
    </g>
    <rect
       style="fill:#4c566a;fill-opacity:1;fill-rule:evenodd;stroke-width:5.29134"
       id="rect9990"
       width="7.1645412"
       height="2.8949535"
       x="1661.9752"
       y="1350.958" />
  </g>
</svg>
